<svg width="20" height="24" viewBox="0 0 20 24" fill="none" xmlns="http://www.w3.org/2000/svg">
<path d="M12.06 18.8736C11.88 18.8736 11.72 18.816 11.6 18.7008L8.63996 15.8592C8.51996 15.744 8.43996 15.5712 8.43996 15.3984C8.43996 15.2256 8.51996 15.072 8.63996 14.9376C8.89996 14.688 9.33996 14.6688 9.59996 14.9184L12.54 17.7408C12.74 17.9328 12.78 18.2016 12.68 18.4512C12.58 18.7008 12.32 18.8736 12.06 18.8736ZM8.11996 18.8736C7.93996 18.8736 7.77996 18.816 7.65996 18.7008C7.51996 18.5856 7.45996 18.4128 7.43996 18.24C7.43996 18.0672 7.49996 17.8944 7.63996 17.7792L8.27996 17.1456C8.39996 17.0304 8.57996 16.9536 8.75996 16.9536C8.93996 16.9536 9.09996 17.0304 9.23996 17.1456C9.49996 17.3952 9.51996 17.8176 9.25996 18.0672L8.59996 18.6816C8.53996 18.7392 8.45996 18.7968 8.37996 18.816C8.29996 18.8544 8.19996 18.8736 8.11996 18.8736ZM14.34 16.6656C14.16 16.6656 14 16.608 13.88 16.4928L13.22 15.8592C12.96 15.6096 12.96 15.2064 13.22 14.9568C13.48 14.7072 13.92 14.688 14.18 14.9376L14.82 15.552C15.02 15.744 15.06 16.0128 14.96 16.2624C14.86 16.4928 14.62 16.6656 14.34 16.6656ZM5.81996 16.6656C5.63996 16.6656 5.47996 16.608 5.35996 16.4928C5.21996 16.3776 5.15996 16.2048 5.13996 16.032C5.13996 15.8592 5.19996 15.6864 5.33996 15.5712L8.27996 12.7488C8.39996 12.6336 8.57996 12.5568 8.75996 12.5568C8.93996 12.5568 9.09996 12.6336 9.23996 12.7488C9.49996 12.9984 9.51996 13.4208 9.25996 13.6704L6.29996 16.4736C6.23996 16.5312 6.15996 16.5888 6.07996 16.608C5.99996 16.6464 5.91996 16.6656 5.81996 16.6656ZM11.42 15.7056C11.24 15.7056 11.08 15.648 10.94 15.5136L10.92 15.4944C10.66 15.2448 10.66 14.8416 10.92 14.592L12.84 12.7488C13.1 12.4992 13.52 12.4992 13.78 12.7488C14.04 12.9984 14.06 13.4208 13.8 13.6704L11.88 15.5136C11.76 15.6288 11.6 15.7056 11.42 15.7056ZM16.64 14.4768C16.46 14.4768 16.28 14.4 16.16 14.2848L13.22 11.4624C12.96 11.2128 12.96 10.8096 13.22 10.56C13.34 10.4448 13.52 10.368 13.7 10.368C13.88 10.368 14.06 10.4256 14.18 10.5408L17.12 13.3632C17.32 13.5552 17.36 13.824 17.26 14.0736C17.16 14.304 16.9 14.4768 16.64 14.4768ZM3.53996 14.4768C3.37996 14.4768 3.19996 14.4192 3.07996 14.304C2.93996 14.1888 2.85996 14.016 2.85996 13.8432C2.85996 13.6704 2.91996 13.4976 3.05996 13.3632L3.69996 12.7296C3.81996 12.6144 3.99996 12.5376 4.17996 12.5376C4.35996 12.5376 4.53996 12.6144 4.65996 12.7296C4.91996 12.9792 4.93996 13.4016 4.67996 13.6512L4.03996 14.2656C3.97996 14.3232 3.89996 14.3808 3.81996 14.4C3.71996 14.4576 3.61996 14.4768 3.53996 14.4768ZM11.04 13.4976C10.86 13.4976 10.7 13.44 10.58 13.3248L8.65996 11.4816C8.39996 11.232 8.39996 10.8288 8.65996 10.5792C8.77996 10.464 8.95996 10.3872 9.13996 10.3872C9.31996 10.3872 9.49996 10.4448 9.61996 10.56L11.54 12.4032C11.66 12.5184 11.74 12.6912 11.74 12.864C11.74 13.0368 11.66 13.1904 11.54 13.3248C11.4 13.4208 11.22 13.4976 11.04 13.4976ZM6.45996 13.4976C6.27996 13.4976 6.11996 13.44 5.99996 13.3248L4.07996 11.4816C3.95996 11.3664 3.87996 11.1936 3.87996 11.0208C3.87996 10.848 3.95996 10.6944 4.07996 10.56C4.33996 10.3104 4.77996 10.2912 5.03996 10.5408L6.95996 12.384C7.07996 12.4992 7.15996 12.672 7.15996 12.8448C7.15996 13.0176 7.07996 13.1712 6.95996 13.3056C6.81996 13.4208 6.63996 13.4976 6.45996 13.4976ZM18.92 12.288C18.74 12.288 18.56 12.2112 18.44 12.096L17.8 11.4624C17.68 11.3472 17.6 11.1744 17.6 11.0016C17.6 10.8288 17.68 10.6752 17.8 10.5408C18.06 10.2912 18.5 10.272 18.76 10.5216L19.4 11.136C19.6 11.328 19.64 11.5968 19.54 11.8464C19.44 12.096 19.2 12.288 18.92 12.288ZM1.25996 12.288C1.09996 12.288 0.919956 12.2304 0.799956 12.1152C0.659956 12 0.579956 11.8272 0.579956 11.6544C0.579956 11.4816 0.639956 11.3088 0.779956 11.1936L3.71996 8.37118C3.83996 8.25598 4.01996 8.17918 4.19996 8.17918C4.37996 8.17918 4.53996 8.25598 4.67996 8.37118C4.93996 8.62078 4.95996 9.04318 4.69996 9.29278L1.73996 12.096C1.67996 12.1536 1.59996 12.2112 1.51996 12.2304C1.43996 12.2688 1.33996 12.288 1.25996 12.288ZM11.42 11.3088C11.24 11.3088 11.08 11.2512 10.94 11.1168L10.92 11.0976C10.8 10.9824 10.72 10.8096 10.72 10.6368C10.72 10.464 10.8 10.3104 10.92 10.176L12.84 8.33278C13.1 8.08318 13.52 8.08318 13.78 8.33278C13.9 8.44798 13.98 8.62078 13.98 8.79358C13.98 8.96638 13.92 9.13918 13.8 9.25438L11.88 11.0976C11.76 11.2512 11.6 11.3088 11.42 11.3088ZM6.83996 11.3088C6.65996 11.3088 6.49996 11.2512 6.35996 11.1168L6.33996 11.0976C6.21996 10.9824 6.13996 10.8096 6.13996 10.6368C6.13996 10.464 6.21996 10.3104 6.33996 10.176L8.25996 8.33278C8.51996 8.08318 8.93996 8.08318 9.19996 8.33278C9.31996 8.44798 9.39996 8.62078 9.39996 8.79358C9.39996 8.96638 9.33996 9.13918 9.21996 9.25438L7.29996 11.0976C7.17996 11.2512 7.01996 11.3088 6.83996 11.3088ZM16 11.3088C15.82 11.3088 15.66 11.232 15.52 11.1168L15.5 11.0976C15.24 10.848 15.24 10.4448 15.5 10.1952L18.44 7.37278C18.7 7.12318 19.12 7.12318 19.38 7.37278C19.64 7.62238 19.64 8.02558 19.38 8.27518L16.46 11.1168C16.34 11.232 16.18 11.3088 16 11.3088ZM1.89996 9.10078C1.71996 9.10078 1.53996 9.04318 1.41996 8.90878L0.779956 8.29438C0.519956 8.04478 0.519956 7.64158 0.779956 7.39198C1.03996 7.14238 1.45996 7.14238 1.71996 7.39198L2.37996 8.00638C2.49996 8.12158 2.57996 8.29438 2.57996 8.46718C2.57996 8.63998 2.51996 8.81278 2.37996 8.92798C2.23996 9.02398 2.07996 9.10078 1.89996 9.10078ZM6.45996 9.10078C6.27996 9.10078 6.11996 9.04318 5.99996 8.90878L3.05996 6.10558C2.79996 5.85598 2.79996 5.45278 3.05996 5.20318C3.31996 4.95358 3.73996 4.95358 3.99996 5.20318L6.93996 8.00638C7.05996 8.12158 7.13996 8.29438 7.13996 8.46718C7.13996 8.63998 7.05996 8.79358 6.93996 8.92798C6.81996 9.04318 6.63996 9.10078 6.45996 9.10078ZM11.04 9.10078C10.86 9.10078 10.7 9.04318 10.58 8.92798L8.65996 7.08478C8.53996 6.96958 8.45996 6.79678 8.45996 6.62398C8.45996 6.45118 8.53996 6.29758 8.65996 6.16318C8.91996 5.91358 9.35996 5.89438 9.61996 6.14398L11.54 7.98718C11.66 8.10238 11.74 8.27518 11.74 8.44798C11.74 8.62078 11.66 8.77438 11.54 8.90878C11.4 9.04318 11.22 9.10078 11.04 9.10078ZM15.62 9.10078C15.44 9.10078 15.26 9.04318 15.14 8.92798L13.22 7.08478C12.96 6.83518 12.96 6.43198 13.22 6.18238C13.34 6.06718 13.52 5.99038 13.7 5.99038C13.88 5.99038 14.06 6.04798 14.18 6.16318L16.1 8.00638C16.36 8.25598 16.36 8.65918 16.1 8.90878C15.98 9.02398 15.8 9.10078 15.62 9.10078ZM6.83996 6.91198C6.65996 6.91198 6.49996 6.85438 6.35996 6.71998L6.33996 6.70078C6.07996 6.45118 6.07996 6.04798 6.33996 5.79838L8.25996 3.95518C8.37996 3.83998 8.55996 3.76318 8.73996 3.76318C8.91996 3.76318 9.07996 3.83998 9.21996 3.95518C9.47996 4.20478 9.49996 4.62718 9.23996 4.87678L7.31996 6.71998C7.17996 6.85438 7.01996 6.91198 6.83996 6.91198ZM11.42 6.91198C11.24 6.91198 11.06 6.83518 10.94 6.71998L10.92 6.70078C10.66 6.45118 10.66 6.04798 10.92 5.79838L13.86 2.97598C14.12 2.72638 14.54 2.72638 14.8 2.97598C15.06 3.22558 15.06 3.62878 14.8 3.87838L11.9 6.71998C11.76 6.83518 11.6 6.91198 11.42 6.91198ZM15.98 6.91198C15.8 6.91198 15.64 6.83518 15.5 6.71998C15.38 6.60478 15.3 6.43198 15.3 6.25918C15.3 6.08638 15.38 5.93278 15.5 5.79838L16.14 5.18398C16.4 4.93438 16.82 4.93438 17.08 5.18398C17.34 5.43358 17.34 5.83678 17.08 6.08638L16.46 6.71998C16.34 6.83518 16.18 6.91198 15.98 6.91198ZM6.45996 4.72318C6.27996 4.72318 6.11996 4.66558 5.97996 4.53118L5.33996 3.91678C5.07996 3.66718 5.07996 3.26398 5.33996 3.01438C5.59996 2.76478 6.01996 2.76478 6.27996 3.01438L6.93996 3.62878C7.05996 3.74398 7.13996 3.91678 7.13996 4.08958C7.13996 4.26238 7.05996 4.43518 6.93996 4.55038C6.81996 4.64638 6.63996 4.72318 6.45996 4.72318ZM11.04 4.70398C10.86 4.70398 10.7 4.64638 10.58 4.53118L7.63996 1.70878C7.37996 1.45918 7.37996 1.05598 7.63996 0.806376C7.89996 0.556776 8.31996 0.556776 8.57996 0.806376L11.52 3.60958C11.64 3.72478 11.72 3.89758 11.72 4.07038C11.72 4.24318 11.64 4.39678 11.52 4.53118C11.4 4.64638 11.22 4.70398 11.04 4.70398ZM11.42 2.51518C11.24 2.51518 11.08 2.43838 10.94 2.32318C10.82 2.20798 10.74 2.03518 10.74 1.86238C10.74 1.68958 10.82 1.53598 10.94 1.40158L11.58 0.787176C11.84 0.537576 12.26 0.537576 12.52 0.787176C12.78 1.03678 12.78 1.43998 12.52 1.68958L11.88 2.32318C11.76 2.43838 11.6 2.51518 11.42 2.51518Z" fill="black"/>
</svg>
