<svg width="20" height="24" viewBox="0 0 20 24" fill="none" xmlns="http://www.w3.org/2000/svg">
<path d="M13.7997 7.35962H13.7634C11.3998 7.02212 8.99998 7.02212 6.6178 7.35962C6.50842 7.37767 6.39976 7.30614 6.39976 7.19989C6.3813 7.09295 6.45445 6.9867 6.56312 6.9867C8.96293 6.64921 11.3998 6.64921 13.8173 6.9867C13.9267 7.00476 13.9991 7.09365 13.9807 7.19989C13.9814 7.30684 13.8906 7.35962 13.7997 7.35962Z" fill="black"/>
<path d="M14.0724 6.24036H14.0539C11.5084 5.90287 8.90825 5.90287 6.36279 6.24036C6.25342 6.25841 6.14476 6.18689 6.14476 6.08064C6.12629 5.97369 6.19945 5.86744 6.30811 5.86744C8.88975 5.52995 11.5085 5.5473 14.1077 5.86744C14.2171 5.8855 14.2896 5.97439 14.2711 6.08064C14.2541 6.16883 14.1633 6.24036 14.0724 6.24036Z" fill="black"/>
<path d="M10.5093 18.0445C10.3821 18.0445 10.309 17.9556 10.309 17.8313L10.3452 17.2445C10.4723 14.8626 12.2181 12.8535 14.5817 12.3374C14.6911 12.3194 14.7998 12.3729 14.8182 12.4798C14.8367 12.5867 14.782 12.693 14.6726 12.7111C12.4723 13.1909 10.8545 15.0575 10.745 17.2625L10.7088 17.8493C10.7088 17.9736 10.6179 18.0445 10.5093 18.0445Z" fill="black"/>
<path d="M14.8906 18.009H14.8359C14.7265 17.9736 14.6725 17.8667 14.6903 17.7604C15.181 16.0361 15.1995 14.4897 14.7265 13.1563C14.5809 12.73 14.3991 12.3918 14.2357 12.0716C13.9992 11.6272 13.7627 11.1827 13.5994 10.507C13.1086 8.56961 13.6903 6.75556 13.7265 6.68481C13.8359 6.34732 13.9445 6.08065 14.0177 5.86675C14.1995 5.40424 14.2904 5.1737 14.2904 4.65772C14.2904 4.2841 14.2358 3.92854 14.1086 3.55564C14.0724 3.44869 14.1271 3.34244 14.2358 3.30703C14.3451 3.27161 14.4538 3.32509 14.49 3.43134C14.6356 3.84037 14.708 4.2494 14.6903 4.65772C14.6903 5.24453 14.5809 5.51119 14.3813 6.00911C14.3089 6.22231 14.1995 6.47162 14.0901 6.80911C14.0901 6.82717 13.5085 8.58689 13.9808 10.4182C14.1441 11.0585 14.3629 11.4668 14.5809 11.9112C14.7627 12.2487 14.9261 12.5869 15.0902 13.0487C15.5809 14.4529 15.5809 16.0891 15.0717 17.8841C15.0546 17.9376 14.9815 18.009 14.8906 18.009Z" fill="black"/>
<path d="M9.87294 18.0445C9.76356 18.0445 9.67265 17.9556 9.67265 17.8667L9.63642 17.2799C9.52705 15.0758 7.90915 13.2091 5.70879 12.7284C5.59941 12.7103 5.52697 12.6041 5.56319 12.4972C5.59941 12.3902 5.69032 12.3194 5.7997 12.3548C8.18188 12.8534 9.92752 14.8798 10.0546 17.2623L10.0908 17.8492C10.0908 17.9554 9.99992 18.0443 9.87279 18.0443C9.89055 18.0443 9.89055 18.0443 9.87279 18.0443L9.87294 18.0445Z" fill="black"/>
<path d="M10.1271 12.4445C8.56317 12.4445 7.07237 12.3375 5.94528 12.1424C5.8359 12.1243 5.76346 12.0181 5.78193 11.9111C5.80039 11.8042 5.90906 11.7333 6.01843 11.7514C7.12782 11.9292 8.58243 12.0361 10.1279 12.0535C11.7458 12.0535 13.255 11.9465 14.3821 11.7514C14.4914 11.7333 14.6001 11.8049 14.6186 11.9111C14.637 12.0181 14.5639 12.1243 14.4552 12.1424C13.2912 12.3375 11.7458 12.4445 10.1271 12.4445Z" fill="black"/>
<path d="M10.7087 16.4091H9.70871C9.59934 16.4091 9.50842 16.3202 9.50842 16.2132C9.50842 16.1063 9.59933 16.0174 9.70871 16.0174H10.7087C10.8181 16.0174 10.909 16.1063 10.909 16.2132C10.909 16.3202 10.8181 16.4091 10.7087 16.4091Z" fill="black"/>
<path d="M5.50927 18.0091C5.41836 18.0091 5.34592 17.9556 5.30898 17.8667C4.79974 16.0708 4.782 14.4354 5.29051 13.0313C5.45387 12.5688 5.63568 12.2313 5.79975 11.8938C6.03626 11.4494 6.23582 11.0404 6.3999 10.4008C6.87291 8.56951 6.29052 6.80986 6.29052 6.79173C6.18115 6.45424 6.07249 6.20492 5.99932 5.99173C5.8175 5.49381 5.70812 5.22714 5.69038 4.64033C5.69038 4.2313 5.74506 3.82227 5.89067 3.41395C5.92689 3.30701 6.03626 3.25423 6.14492 3.28965C6.2543 3.32506 6.30827 3.43201 6.27205 3.53825C6.14492 3.91187 6.09023 4.26742 6.09023 4.64033C6.09023 5.1556 6.18114 5.38686 6.36296 5.84936C6.43541 6.06255 6.54478 6.31187 6.65416 6.66742C6.67263 6.73826 7.27205 8.55222 6.78129 10.4896C6.59947 11.1653 6.36296 11.6271 6.14493 12.0542C5.98158 12.3744 5.79976 12.7119 5.65416 13.139C5.18115 14.4723 5.19962 16.0188 5.69039 17.7431C5.72661 17.85 5.65417 17.9562 5.54479 17.9917C5.5455 17.991 5.52703 18.0091 5.50927 18.0091Z" fill="black"/>
<path d="M17.4907 9.56459H14.3636C14.2542 9.56459 14.1633 9.4757 14.1633 9.36875C14.1633 9.26181 14.2542 9.17291 14.3636 9.17291H17.4907C17.6001 9.17291 17.691 9.2618 17.691 9.36875C17.691 9.4757 17.6001 9.56459 17.4907 9.56459Z" fill="black"/>
<path d="M15.7087 10.4354C15.6725 10.4354 15.6363 10.4173 15.5993 10.4L14.2542 9.5465C14.1995 9.51109 14.1633 9.43956 14.1633 9.38678C14.1633 9.33331 14.1995 9.26248 14.2542 9.22706L15.5993 8.37358C15.6903 8.32011 15.8174 8.33817 15.8721 8.42706C15.9268 8.51595 15.9083 8.64025 15.8174 8.69372L14.7265 9.38677L15.8174 10.0798C15.9083 10.1333 15.9445 10.2576 15.8721 10.3465C15.8543 10.4 15.7819 10.4354 15.7087 10.4354Z" fill="black"/>
<path d="M5.63634 9.56459H2.50925C2.39988 9.56459 2.30896 9.4757 2.30896 9.36875C2.30896 9.26181 2.39987 9.17291 2.50925 9.17291L5.63634 9.17361C5.74572 9.17361 5.83663 9.2625 5.83663 9.36945C5.83663 9.4757 5.74572 9.56459 5.63634 9.56459Z" fill="black"/>
<path d="M4.29129 10.4354C4.21885 10.4354 4.16416 10.4 4.12794 10.3465C4.07325 10.2576 4.09172 10.1333 4.18262 10.0798L5.27353 9.38679L4.18262 8.69374C4.09172 8.64027 4.05549 8.51596 4.12794 8.42707C4.18262 8.33818 4.30976 8.30277 4.40066 8.3736L5.74583 9.22708C5.80052 9.26249 5.83674 9.31597 5.83674 9.3868C5.83674 9.45763 5.80052 9.51111 5.74583 9.54652L4.40066 10.4C4.36373 10.4181 4.32751 10.4354 4.29129 10.4354Z" fill="black"/>
</svg>
