<svg width="20" height="24" viewBox="0 0 20 24" fill="none" xmlns="http://www.w3.org/2000/svg">
<path d="M17.8814 4.925L15.8729 2.96109C15.5405 2.6361 15 2.6361 14.6676 2.96109L2.11855 15.2306C1.78617 15.5556 1.78617 16.0841 2.11855 16.4091L4.12709 18.373C4.29329 18.5355 4.51133 18.6167 4.72937 18.6167C4.9474 18.6167 5.16544 18.5355 5.33164 18.373L17.8813 6.10276C18.2137 5.77777 18.2137 5.24929 17.8813 4.92429L17.8814 4.925ZM17.4802 5.71043L15.3707 7.773L14.5667 6.98689C14.4559 6.87855 14.2762 6.87855 14.1647 6.98689C14.054 7.09522 14.054 7.27092 14.1647 7.37994L14.9687 8.16605L14.3274 8.79313L13.9254 8.40008C13.8146 8.29175 13.6349 8.29175 13.5234 8.40008C13.4126 8.50841 13.4126 8.68412 13.5234 8.79313L13.9254 9.18618L13.2841 9.81325L12.4801 9.02714C12.3693 8.9188 12.1896 8.9188 12.0781 9.02714C11.9673 9.13547 11.9673 9.31117 12.0781 9.42019L12.8821 10.2063L12.2408 10.8334L11.8388 10.4403C11.728 10.332 11.5483 10.332 11.4368 10.4403C11.326 10.5487 11.326 10.7244 11.4368 10.8334L11.8388 11.2264L11.1975 11.8535L10.3935 11.0674C10.2827 10.9591 10.103 10.9591 9.99151 11.0674C9.88072 11.1757 9.88072 11.3514 9.99151 11.4604L10.7955 12.2466L10.1542 12.8736L9.75219 12.4806C9.64139 12.3722 9.46169 12.3722 9.3502 12.4806C9.23941 12.5889 9.23941 12.7646 9.3502 12.8736L9.75219 13.2667L9.11086 13.8938L8.30688 13.1076C8.19608 12.9993 8.01639 12.9993 7.90489 13.1076C7.7941 13.216 7.7941 13.3917 7.90489 13.5007L8.70888 14.2868L8.06755 14.9139L7.66557 14.5208C7.55477 14.4125 7.37508 14.4125 7.26358 14.5208C7.15279 14.6292 7.15279 14.8049 7.26358 14.9139L7.66557 15.3069L7.02424 15.934L6.22026 15.1479C6.10946 15.0396 5.92977 15.0396 5.81828 15.1479C5.70748 15.2562 5.70748 15.4319 5.81828 15.5409L6.62226 16.327L6.18191 16.7576L5.77993 16.3646C5.66914 16.2562 5.48944 16.2562 5.37795 16.3646C5.26715 16.4729 5.26715 16.6486 5.37795 16.7576L5.77993 17.1507L4.92908 17.9826C4.81828 18.0909 4.63788 18.0909 4.52709 17.9826L2.51855 16.0187C2.40775 15.9104 2.40775 15.734 2.51855 15.6256L15.0689 3.35276C15.1243 3.29859 15.1968 3.27151 15.2699 3.27151C15.3424 3.27151 15.4155 3.29859 15.4709 3.35276L17.4795 5.31667C17.5903 5.425 17.5903 5.6014 17.4795 5.70972L17.4802 5.71043ZM15.4298 4.51876C15.2011 4.52293 14.9852 4.61321 14.8218 4.77363C14.6585 4.93335 14.5654 5.14445 14.5612 5.36808C14.5569 5.59585 14.6436 5.80836 14.8062 5.96669C14.9646 6.12155 15.1755 6.20628 15.4021 6.20628H15.4191C15.6478 6.20212 15.8637 6.11184 16.0271 5.95142C16.1905 5.7917 16.2835 5.58059 16.2878 5.35697C16.292 5.1292 16.2054 4.91668 16.0427 4.75836C15.8801 4.59933 15.6628 4.51391 15.4305 4.51876H15.4298ZM15.6251 5.55905C15.5662 5.61669 15.4887 5.65002 15.4078 5.65141C15.3396 5.65419 15.2601 5.62572 15.2075 5.57433C15.1549 5.52294 15.1272 5.45349 15.1287 5.37849C15.1301 5.29932 15.1642 5.22432 15.2231 5.16599C15.2821 5.10835 15.3595 5.07502 15.4404 5.07363H15.4461C15.5207 5.07363 15.5896 5.10071 15.6407 5.15071C15.6933 5.2021 15.721 5.27154 15.7196 5.34655C15.7181 5.42572 15.6841 5.50072 15.6251 5.55905Z" fill="black"/>
</svg>
