<svg width="20" height="24" viewBox="0 0 20 24" fill="none" xmlns="http://www.w3.org/2000/svg">
<path fill-rule="evenodd" clip-rule="evenodd" d="M8.01136 2.88892C8.86704 2.88892 9.61227 3.3513 9.99999 4.03447C10.3877 3.3513 11.1329 2.88892 11.9886 2.88892H13.6932V3.44447C13.6932 4.10819 13.3956 4.70395 12.9237 5.11114H14.8295C15.3002 5.11114 15.6818 5.48423 15.6818 5.94447C15.6818 6.40471 15.3002 6.7778 14.8295 6.7778H5.17045C4.69975 6.7778 4.31818 6.40471 4.31818 5.94447C4.31818 5.48423 4.69975 5.11114 5.17045 5.11114H7.07624C6.60443 4.70395 6.30681 4.10819 6.30681 3.44447V2.88892H8.01136ZM6.87499 3.44447H8.01136C8.95278 3.44447 9.7159 4.19067 9.7159 5.11114H8.57954C7.63812 5.11114 6.87499 4.36494 6.87499 3.44447ZM14.8295 5.66669C14.9864 5.66669 15.1136 5.79106 15.1136 5.94447C15.1136 6.09788 14.9864 6.22225 14.8295 6.22225H5.17045C5.01355 6.22225 4.88636 6.09788 4.88636 5.94447C4.88636 5.79106 5.01355 5.66669 5.17045 5.66669H14.8295ZM13.125 3.44447C13.125 4.36494 12.3619 5.11114 11.4204 5.11114H10.2841C10.2841 4.19067 11.0472 3.44447 11.9886 3.44447H13.125Z" fill="black"/>
<path fill-rule="evenodd" clip-rule="evenodd" d="M13.9773 12.8889C13.9773 12.2752 13.4685 11.7778 12.8409 11.7778H11.4769L11.032 10.439L12.7019 9.2527H10.6378L9.99998 7.33331L9.36214 9.2527H7.2981L8.96793 10.439L8.52305 11.7778H7.15907C6.53147 11.7778 6.02271 12.2752 6.02271 12.8889V17.3333C6.02271 17.947 6.53147 18.4444 7.15907 18.4444H12.8409C13.4685 18.4444 13.9773 17.947 13.9773 17.3333V12.8889ZM11.1363 12.3333V14H13.4091V12.8889C13.4091 12.582 13.1547 12.3333 12.8409 12.3333H11.1363ZM9.14742 11.7778H10.8525L9.99998 11.1721L9.14742 11.7778ZM13.4091 15.6666V14.5555H11.1363V15.6666H13.4091ZM11.1363 16.2222H13.4091V17.3333C13.4091 17.6401 13.1547 17.8889 12.8409 17.8889H11.1363V16.2222ZM10.5682 15.6666V14.5555H9.4318V15.6666H10.5682ZM10.5682 16.2222V17.8889H9.4318V16.2222H10.5682ZM8.86361 15.6666V14.5555H6.59089V15.6666H8.86361ZM6.59089 16.2222H8.86361V17.8889H7.15907C6.84526 17.8889 6.59089 17.6401 6.59089 17.3333V16.2222ZM6.59089 14H8.86361V12.3333H7.15907C6.84526 12.3333 6.59089 12.582 6.59089 12.8889V14ZM9.4318 14H10.5682V12.3333H9.4318V14ZM10.9532 9.80826H10.225L9.99998 9.13115L9.77498 9.80826H9.0468L9.63589 10.2268L9.41089 10.9039L9.99998 10.4854L10.5891 10.9039L10.3641 10.2268L10.9532 9.80826Z" fill="black"/>
<path d="M13.9773 9.27776C13.9773 8.5107 14.6133 7.88887 15.3978 7.88887H16.25C16.4069 7.88887 16.5341 7.76448 16.5341 7.61109C16.5341 7.4577 16.4069 7.33331 16.25 7.33331H15.3978C14.2995 7.33331 13.4091 8.20387 13.4091 9.27776C13.4091 9.43115 13.5363 9.55554 13.6932 9.55554C13.8501 9.55554 13.9773 9.43115 13.9773 9.27776Z" fill="black"/>
<path d="M4.60224 7.88887C5.38674 7.88887 6.0227 8.5107 6.0227 9.27776C6.0227 9.43115 6.14989 9.55554 6.30679 9.55554C6.46369 9.55554 6.59088 9.43115 6.59088 9.27776C6.59088 8.20387 5.70054 7.33331 4.60224 7.33331H3.74997C3.59307 7.33331 3.46588 7.4577 3.46588 7.61109C3.46588 7.76448 3.59307 7.88887 3.74997 7.88887H4.60224Z" fill="black"/>
<path d="M3.46591 9.83331C3.30902 9.83331 3.18182 9.9577 3.18182 10.1111C3.18182 10.2645 3.30902 10.3889 3.46591 10.3889C4.32091 10.3889 5.15045 10.6734 5.81808 11.1956L6.12935 11.4391C6.25187 11.5349 6.43065 11.5155 6.52866 11.3957C6.62665 11.2759 6.60682 11.1011 6.4843 11.0053L6.17303 10.7618C5.40464 10.1608 4.44993 9.83331 3.46591 9.83331Z" fill="black"/>
<path d="M16.8182 10.1111C16.8182 9.9577 16.691 9.83331 16.5341 9.83331C15.5501 9.83331 14.5954 10.1608 13.827 10.7618L13.5158 11.0053C13.3932 11.1011 13.3734 11.2759 13.4714 11.3957C13.5694 11.5155 13.7482 11.5349 13.8707 11.4391L14.182 11.1956C14.8496 10.6734 15.6791 10.3889 16.5341 10.3889C16.691 10.3889 16.8182 10.2645 16.8182 10.1111Z" fill="black"/>
</svg>
