<svg width="22" height="22" viewBox="0 0 22 22" fill="none" xmlns="http://www.w3.org/2000/svg">
<path d="M10.8089 21.9486C9.37628 21.1539 8.22105 20.1392 7.34528 18.9018L0.260922 16.7395C0.101854 16.6923 0.00290981 16.5528 0.00290981 16.4031L0 3.59796C0 3.42978 0.121242 3.29024 0.285152 3.25236L10.8855 0.0180193C10.9621 -0.00600644 11.0417 -0.00600644 11.1144 0.0180193L21.7391 3.26159C21.8981 3.30872 21.9971 3.44826 21.9971 3.59796L22 16.4031C22 16.5685 21.8788 16.7108 21.7148 16.7487L14.6556 18.9018C13.7788 20.1392 12.6216 21.1566 11.187 21.9514C11.0658 22.0198 10.9213 22.0133 10.8097 21.9487L10.8089 21.9486ZM16.3143 2.34854L6.90876 5.2207L11.0008 6.47005L20.411 3.59789L16.3143 2.34854ZM6.06403 5.70566V7.77562C6.06403 7.97153 5.8972 8.13047 5.69158 8.13047C5.48595 8.13047 5.31912 7.97153 5.31912 7.77562V5.47834L0.744867 4.08297V16.1451L6.76624 17.9831C6.71386 17.8833 6.65954 17.7872 6.61008 17.6846C5.69639 15.9011 5.25896 13.7462 5.29873 11.2242C5.30164 11.0708 5.40349 10.9423 5.54704 10.8952C5.96218 10.7529 6.33463 10.5265 6.63724 10.2354C6.94278 9.9443 7.18137 9.59222 7.32978 9.19488C7.38216 9.05072 7.52571 8.96109 7.67994 8.95831H10.6276V7.09904L6.06403 5.70566ZM5.69158 4.84903L15.0971 1.97687L11.0001 0.725639L1.58985 3.5978L5.69158 4.84903ZM11.3725 7.09918V8.95845H14.3201C14.4841 8.95845 14.6228 9.06011 14.6732 9.2024C14.8226 9.59515 15.0602 9.94721 15.3638 10.2365L15.3812 10.2549C15.6819 10.5368 16.0466 10.7567 16.4559 10.8935C16.615 10.948 16.712 11.0968 16.7013 11.2511C16.7382 13.7608 16.3017 15.9067 15.39 17.6855C15.3405 17.7871 15.2852 17.8842 15.2338 17.984L21.2552 16.146V4.08388L11.3724 7.10011L11.3725 7.09918ZM9.65962 14.9835C9.51607 14.8439 9.51607 14.6194 9.65962 14.4799C9.80608 14.3431 10.0418 14.3431 10.1863 14.4799L10.7576 15.0242L11.7906 13.8228C11.9196 13.6713 12.1533 13.6482 12.3124 13.7711C12.4715 13.894 12.4957 14.1186 12.3667 14.2701L11.0486 15.8032C10.905 15.9427 10.6684 15.9427 10.5219 15.8032L9.6606 14.9844L9.65962 14.9835ZM11.2261 11.5606L11.7974 11.9653L12.5103 11.8877C12.6868 11.8692 12.8478 11.9709 12.905 12.1243L13.1786 12.725L13.8342 12.9966C13.9885 13.0604 14.0748 13.2092 14.0554 13.3607L13.9758 14.0399L14.4026 14.5888C14.5016 14.7164 14.4967 14.8919 14.3978 15.0121L13.9759 15.5564L14.0573 16.2374C14.0767 16.4056 13.97 16.559 13.809 16.6108L13.1786 16.8714L12.8934 17.4979C12.8265 17.6448 12.6703 17.7252 12.5112 17.7086L11.7983 17.6309L11.2222 18.0376C11.0854 18.1346 10.9041 18.1272 10.7751 18.0348L10.2038 17.63L9.49085 17.7104C9.31432 17.7289 9.15331 17.6254 9.099 17.4711L8.82354 16.8704L8.16786 16.6006C8.01365 16.5368 7.92732 16.3853 7.94672 16.2365L8.02625 15.5555L7.60143 15.0093C7.49959 14.879 7.50444 14.7062 7.60434 14.5833L8.02626 14.039L7.94478 13.3598C7.92539 13.1916 8.03208 13.0382 8.19309 12.9837L8.82646 12.7231L9.10968 12.0984C9.1766 11.9515 9.33567 11.8693 9.49184 11.8859L10.2067 11.9635L10.7799 11.5569C10.9167 11.4599 11.098 11.4673 11.2271 11.5597L11.2261 11.5606ZM11.4715 12.6178L11.0001 12.2814L10.5433 12.6058C10.4686 12.6649 10.3696 12.6954 10.2649 12.6834L9.67904 12.6196L9.44528 13.1334C9.41036 13.2138 9.34344 13.2803 9.25129 13.3182L8.712 13.5409L8.78184 14.0972C8.79154 14.185 8.76923 14.2747 8.71006 14.3477L8.3599 14.7996L8.69745 15.2348C8.75952 15.306 8.79153 15.4002 8.78183 15.5L8.712 16.0582L9.25129 16.2781C9.33567 16.3132 9.40551 16.3779 9.44528 16.4629L9.67903 16.9767L10.2649 16.913C10.3541 16.9037 10.4482 16.925 10.5277 16.9813L10.9991 17.315L11.4559 16.9906C11.5306 16.9342 11.6296 16.901 11.7343 16.913L12.3202 16.9767L12.5539 16.4657C12.5888 16.3853 12.6558 16.3169 12.7479 16.2809L13.2872 16.0582L13.2174 15.5C13.2077 15.415 13.2319 15.3254 13.2891 15.2496L13.6393 14.8005L13.3018 14.3653C13.2397 14.2941 13.2077 14.1998 13.2174 14.1L13.2872 13.5419L12.7479 13.3192C12.6635 13.2841 12.5937 13.2194 12.5539 13.1344L12.3202 12.6206L11.7343 12.6843C11.6451 12.6936 11.551 12.6723 11.4715 12.6178ZM7.27737 17.3749C8.10181 18.9884 9.34333 20.2728 10.9989 21.2331C12.6556 20.2729 13.8971 18.9884 14.7205 17.3749C15.5547 15.7448 15.9669 13.7746 15.9591 11.4699C15.544 11.2971 15.1715 11.0532 14.8563 10.7556L14.834 10.7371C14.5139 10.4322 14.2501 10.07 14.0639 9.66798H7.93101C7.74479 10.07 7.48193 10.4322 7.16088 10.7371C6.83788 11.0421 6.45865 11.2935 6.03576 11.4709C6.028 13.7746 6.44022 15.7457 7.27438 17.3758L7.27737 17.3749Z" fill="black"/>
</svg>
