<svg width="20" height="24" viewBox="0 0 20 24" fill="none" xmlns="http://www.w3.org/2000/svg">
<path d="M18.67 6.29373C18.158 5.81565 17.234 5.95773 16.566 6.61629C16.4688 6.71126 16.3811 6.81475 16.304 6.92541C15.8053 7.67436 15.2349 8.37693 14.6 9.02397L13.632 9.98397C13.346 10.2662 13.064 10.56 12.784 10.848C13.264 10.0454 13.72 9.22557 14.14 8.39805L14.74 7.19997C15.1573 6.4022 15.6514 5.64369 16.216 4.93437C16.2973 4.82718 16.3689 4.71348 16.43 4.59453C16.6173 4.23903 16.6871 3.83712 16.63 3.44253C16.6103 3.26416 16.5453 3.09316 16.4406 2.94453C16.336 2.7959 16.195 2.67418 16.03 2.59005C15.4 2.28477 14.56 2.68797 14.14 3.52125C14.0812 3.64088 14.0343 3.7656 14 3.89373C13.7661 4.75187 13.4501 5.58742 13.056 6.38973L12.456 7.58973C12.21 8.07165 11.976 8.56317 11.75 9.05661V5.85981C12.822 5.49693 13.536 4.98045 13.536 4.32381V2.87997C13.536 1.47645 10.316 0.719971 7.28601 0.719971C4.25601 0.719971 1.01801 1.46877 1.01801 2.87997V4.31997C1.01801 4.98045 1.73201 5.49693 2.80401 5.85597V13.344C1.73201 13.7069 1.01801 14.2233 1.01801 14.88V16.32C1.01801 17.7235 4.23801 18.48 7.26801 18.48C10.298 18.48 13.518 17.7312 13.518 16.32V14.88C13.518 14.3616 13.078 13.9315 12.37 13.5955C13.27 12.8448 14.146 12.0595 14.97 11.2377L15.938 10.2777C16.5931 9.64863 17.3075 9.07916 18.072 8.57661C18.1899 8.50221 18.2998 8.41667 18.4 8.32125C19.06 7.66269 19.182 6.77181 18.67 6.29373ZM1.51801 16.32V15.744L1.55201 15.7728C2.06387 16.133 2.64405 16.3939 3.26001 16.5408C4.56442 16.8747 5.91008 17.0369 7.26001 17.0227C8.60992 17.0366 9.95555 16.8745 11.26 16.5408C11.8748 16.394 12.4537 16.1331 12.964 15.7728L13.002 15.744V16.32C13.002 17.1149 10.64 18 7.25201 18C3.864 18 1.51801 17.1225 1.51801 16.32ZM12.664 15.4176C12.2046 15.7357 11.6859 15.9664 11.136 16.0973C9.87439 16.4186 8.5732 16.5743 7.26801 16.56C5.9628 16.5744 4.6616 16.4188 3.40001 16.0973C2.84895 15.9663 2.32898 15.7356 1.86801 15.4176C1.77207 15.3582 1.69096 15.2792 1.63046 15.1863C1.56996 15.0934 1.53157 14.9888 1.51801 14.88C1.51801 14.5267 1.98601 14.1542 2.80401 13.8509V14.2349C2.80401 14.4979 2.93401 14.8339 3.44201 15.1315C3.70862 15.2796 3.9935 15.395 4.29001 15.4752C5.25855 15.7222 6.25798 15.8398 7.26001 15.8246C9.31801 15.8246 11.724 15.4061 11.724 14.2291V13.8451C12.542 14.1485 13.01 14.5209 13.01 14.8742C12.9982 14.9838 12.9609 15.0895 12.9011 15.1835C12.8412 15.2775 12.7602 15.3575 12.664 15.4176ZM7.26401 1.19229C10.652 1.19229 13.014 2.07741 13.014 2.87229C13.0004 2.98154 12.9616 3.0865 12.9003 3.17951C12.8391 3.27252 12.757 3.35122 12.66 3.40989C12.2006 3.72804 11.6819 3.95875 11.132 4.08957C9.87042 4.41109 8.56921 4.56675 7.26401 4.55229C5.96014 4.56641 4.6603 4.41075 3.40001 4.08957C2.84895 3.95863 2.32898 3.72795 1.86801 3.40989C1.77303 3.35132 1.6925 3.27356 1.63205 3.18203C1.5716 3.09051 1.53268 2.98742 1.51801 2.87997C1.51801 2.07741 3.87801 1.19229 7.26801 1.19229H7.26401ZM1.51801 3.75357L1.55201 3.78237C2.06387 4.1426 2.64405 4.40348 3.26001 4.55037C4.56442 4.88435 5.91008 5.04647 7.26001 5.03229C8.60992 5.04635 9.95557 4.88423 11.26 4.55037C11.8748 4.40357 12.4537 4.14266 12.964 3.78237L13.002 3.75357V4.31997C13.002 5.11485 10.64 5.99997 7.25201 5.99997C3.864 5.99997 1.51801 5.11485 1.51801 4.31997V3.75357ZM14.6 3.73245C14.834 3.27165 15.25 2.96445 15.6 2.96445C15.6775 2.96349 15.7543 2.97993 15.824 3.01245C15.916 3.0636 15.9937 3.13538 16.0505 3.22165C16.1072 3.30792 16.1414 3.4061 16.15 3.50781C16.1913 3.80725 16.1354 4.11164 15.99 4.37949C15.9426 4.47277 15.887 4.56204 15.824 4.64637C15.2428 5.37589 14.7333 6.15555 14.302 6.97533L13.702 8.17341C13.124 9.31197 12.482 10.4352 11.796 11.5142L11.75 11.5853V10.2912C12.106 9.45021 12.492 8.61693 12.906 7.79517L13.506 6.59709C13.9094 5.77214 14.2334 4.91353 14.474 4.03197C14.5058 3.92845 14.548 3.82814 14.6 3.73245ZM8.56001 6.43389C9.46294 6.37753 10.3579 6.23605 11.232 6.01149V6.06333C8.56601 8.34429 4.31801 8.25597 3.30401 8.20221V7.06749C3.50401 7.07901 3.77801 7.09245 4.13401 7.09245C5.63637 7.09954 7.13036 6.87724 8.56001 6.43389ZM11.232 10.9094C8.56601 13.1923 4.31801 13.1059 3.30401 13.056V11.9232C3.50401 11.9347 3.77801 11.9462 4.13401 11.9462C5.78201 11.9462 8.92001 11.687 11.232 9.93021V10.9094ZM11.232 14.2349C11.232 14.8608 9.49001 15.3504 7.26801 15.3504C6.49214 15.3559 5.71763 15.2871 4.95601 15.1449C6.72801 15.0528 9.27801 14.6381 11.232 13.1539V14.2349ZM3.30401 10.2989C3.50401 10.3104 3.77801 10.3238 4.13401 10.3238C5.78201 10.3238 8.92001 10.0627 11.232 8.30589V9.29469C8.56601 11.5757 4.31801 11.4893 3.30401 11.4336V10.2989ZM11.232 7.67997C8.56601 9.96093 4.31801 9.87453 3.30401 9.81693V8.68413C3.50401 8.69565 3.77801 8.70717 4.13401 8.70717C5.78201 8.70717 8.92001 8.44797 11.232 6.69117V7.67997ZM4.13401 13.5552C5.78201 13.5552 8.92001 13.2941 11.232 11.5373V12.5261C8.81201 14.5997 5.15801 14.7283 3.63201 14.6803C3.54474 14.6369 3.46993 14.5736 3.41413 14.4959C3.35833 14.4182 3.32326 14.3286 3.31201 14.2349V13.5302C3.49601 13.5417 3.77801 13.5552 4.13401 13.5552ZM6.26801 6.45117C5.28691 6.58838 4.29414 6.63275 3.30401 6.58365V6.00765C4.27287 6.25611 5.2664 6.40542 6.26801 6.45309V6.45117ZM11.732 13.3401V12.72C12.448 11.8905 13.2 11.0803 13.982 10.3104L14.95 9.35037C15.6082 8.68504 16.2007 7.96259 16.72 7.19229C16.7793 7.1063 16.8462 7.02536 16.92 6.95037C17.1736 6.68208 17.5255 6.51835 17.902 6.49341C18.0544 6.48688 18.2033 6.53867 18.316 6.63741C18.618 6.91965 18.486 7.53597 18.03 7.98141C17.9542 8.05591 17.8719 8.124 17.784 8.18493C16.9957 8.70401 16.2592 9.29213 15.584 9.94173L14.616 10.9017C13.74 11.7657 12.816 12.599 11.86 13.3862L11.732 13.3401Z" fill="black"/>
<path d="M17.232 8.19454C17.3534 8.18797 17.4722 8.15847 17.5817 8.10773C17.6912 8.05699 17.7892 7.98601 17.87 7.89886C18.001 7.77323 18.0943 7.61604 18.14 7.44382C18.1655 7.35709 18.1672 7.26549 18.1447 7.17798C18.1223 7.09048 18.0766 7.01006 18.012 6.94462C17.768 6.71806 17.342 6.78718 17.012 7.1059C16.8811 7.23153 16.7878 7.38872 16.742 7.56094C16.7168 7.64888 16.716 7.74164 16.7399 7.82993C16.7638 7.91822 16.8114 7.99893 16.878 8.06398C16.9737 8.15026 17.1008 8.19713 17.232 8.19454ZM17.378 7.4419C17.4487 7.36025 17.5485 7.30685 17.658 7.29214C17.6445 7.39716 17.5919 7.49396 17.51 7.56478C17.4369 7.64223 17.3392 7.69422 17.232 7.71262C17.2446 7.60829 17.2966 7.512 17.378 7.4419Z" fill="black"/>
<path d="M14.9059 4.8C14.9684 4.82868 15.0367 4.84376 15.1059 4.84416C15.2227 4.84204 15.3365 4.80808 15.4339 4.74624C15.5905 4.64811 15.7169 4.51154 15.7999 4.35072C15.9999 3.94944 15.9259 3.5424 15.6239 3.40032C15.3219 3.25824 14.9379 3.45216 14.7359 3.85152C14.6516 4.00968 14.6136 4.18687 14.6259 4.36416C14.6299 4.45373 14.6577 4.54083 14.7067 4.61714C14.7558 4.69344 14.8243 4.7564 14.9059 4.8ZM15.3999 3.84C15.4214 3.94383 15.4029 4.0516 15.3479 4.14336C15.3069 4.24101 15.2301 4.3209 15.1319 4.368C15.1093 4.26441 15.1271 4.15647 15.1819 4.06464C15.2243 3.96714 15.3016 3.88744 15.3999 3.84Z" fill="black"/>
<path d="M4.79999 2.87998C4.80307 2.96941 4.82781 3.05692 4.87224 3.13557C4.91668 3.21422 4.97959 3.28185 5.05599 3.3331C5.26013 3.48034 5.49259 3.58735 5.73999 3.64798C6.23784 3.77849 6.75192 3.84309 7.26799 3.83998C7.78538 3.8432 8.3008 3.7786 8.79999 3.64798C9.04773 3.58861 9.28085 3.48291 9.48599 3.33694C9.56218 3.2849 9.62464 3.21647 9.6684 3.13713C9.71215 3.05779 9.73598 2.96973 9.73799 2.87998C9.73799 2.22718 8.45799 1.91998 7.26799 1.91998C6.07799 1.91998 4.79999 2.2195 4.79999 2.87998ZM9.24199 2.87998C9.24199 2.87998 9.22999 2.91646 9.16999 2.96254C9.017 3.06843 8.84366 3.14413 8.65999 3.18526C8.20731 3.30071 7.74033 3.35626 7.27199 3.35038C6.80363 3.35653 6.33661 3.30097 5.88399 3.18526C5.69975 3.14398 5.52578 3.06831 5.37199 2.96254C5.31199 2.91646 5.29999 2.88574 5.29999 2.87998C5.29999 2.75902 5.97799 2.40958 7.27199 2.40958C8.56599 2.40958 9.23799 2.75134 9.23799 2.87998H9.24199Z" fill="black"/>
</svg>
